<mxfile host="Electron" modified="2024-03-01T02:49:23.084Z" agent="Mozilla/5.0 (Macintosh; Intel Mac OS X 10_15_7) AppleWebKit/537.36 (KHTML, like Gecko) draw.io/22.1.16 Chrome/120.0.6099.109 Electron/28.1.0 Safari/537.36" etag="AZ0qxZO142O4sJOIuGYf" version="22.1.16" type="device">
  <diagram name="第 1 页" id="IOspnw4uI6Ur3rtfJsFW">
    <mxGraphModel dx="1434" dy="907" grid="1" gridSize="10" guides="1" tooltips="1" connect="1" arrows="1" fold="1" page="1" pageScale="1" pageWidth="827" pageHeight="1169" math="0" shadow="0">
      <root>
        <mxCell id="0" />
        <mxCell id="1" parent="0" />
        <mxCell id="d2qEVrM2X_r1vpsY_thz-1" value="" style="rounded=0;whiteSpace=wrap;html=1;" vertex="1" parent="1">
          <mxGeometry x="49" y="260" width="731" height="350" as="geometry" />
        </mxCell>
        <mxCell id="d2qEVrM2X_r1vpsY_thz-2" value="http router" style="rounded=0;whiteSpace=wrap;html=1;fillColor=#60a917;fontColor=#ffffff;strokeColor=#2D7600;" vertex="1" parent="1">
          <mxGeometry x="210" y="290" width="550" height="40" as="geometry" />
        </mxCell>
        <mxCell id="d2qEVrM2X_r1vpsY_thz-3" value="request parser" style="rounded=0;whiteSpace=wrap;html=1;fillColor=#f5f5f5;fontColor=#333333;strokeColor=#666666;" vertex="1" parent="1">
          <mxGeometry x="210" y="350" width="260" height="40" as="geometry" />
        </mxCell>
        <mxCell id="d2qEVrM2X_r1vpsY_thz-4" value="client signature verifier" style="rounded=0;whiteSpace=wrap;html=1;fillColor=#f5f5f5;fontColor=#333333;strokeColor=#666666;" vertex="1" parent="1">
          <mxGeometry x="490" y="350" width="270" height="40" as="geometry" />
        </mxCell>
        <mxCell id="d2qEVrM2X_r1vpsY_thz-5" value="http request proxy" style="rounded=0;whiteSpace=wrap;html=1;fillColor=#1ba1e2;strokeColor=#006EAF;fontColor=#ffffff;" vertex="1" parent="1">
          <mxGeometry x="210" y="410" width="550" height="40" as="geometry" />
        </mxCell>
        <mxCell id="d2qEVrM2X_r1vpsY_thz-6" value="data signer" style="rounded=0;whiteSpace=wrap;html=1;fillColor=#a20025;fontColor=#ffffff;strokeColor=#6F0000;" vertex="1" parent="1">
          <mxGeometry x="210" y="470" width="260" height="40" as="geometry" />
        </mxCell>
        <mxCell id="d2qEVrM2X_r1vpsY_thz-7" value="data encrypter" style="rounded=0;whiteSpace=wrap;html=1;fillColor=#a20025;fontColor=#ffffff;strokeColor=#6F0000;" vertex="1" parent="1">
          <mxGeometry x="500" y="470" width="260" height="40" as="geometry" />
        </mxCell>
        <mxCell id="d2qEVrM2X_r1vpsY_thz-8" value="http response formatter" style="rounded=0;whiteSpace=wrap;html=1;fillColor=#76608a;fontColor=#ffffff;strokeColor=#432D57;" vertex="1" parent="1">
          <mxGeometry x="210" y="530" width="550" height="40" as="geometry" />
        </mxCell>
        <mxCell id="d2qEVrM2X_r1vpsY_thz-9" value="config" style="rounded=1;whiteSpace=wrap;html=1;fillColor=#a0522d;fontColor=#ffffff;strokeColor=#6D1F00;" vertex="1" parent="1">
          <mxGeometry x="70" y="290" width="120" height="280" as="geometry" />
        </mxCell>
      </root>
    </mxGraphModel>
  </diagram>
</mxfile>
